<?xml version="1.0" encoding="UTF-8"?>
<svg xmlns="http://www.w3.org/2000/svg" width="46" height="46" viewBox="0 0 46 46">
    <g fill="none" fill-rule="evenodd" stroke="#BE3434" stroke-linecap="square" stroke-width="2">
        <path d="M23 7c0-3.3-2.7-6-6-6-2.6 0-4.8 1.7-5.6 4H11C5.5 5 1 9.5 1 15c0 2.7 1.1 5.1 2.8 6.9C2.1 23 1 24.9 1 27c0 2 1 3.8 2.5 4.9-.3 1-.5 2-.5 3.1 0 5.5 4.5 10 10 10s10-4.5 10-10V19M23 7c0-3.3 2.7-6 6-6 2.6 0 4.8 1.7 5.6 4h.4c5.5 0 10 4.5 10 10 0 2.7-1.1 5.1-2.8 6.9 1.7 1.1 2.8 3 2.8 5.1 0 2-1 3.8-2.5 4.9.3 1 .5 2 .5 3.1 0 5.5-4.5 10-10 10s-10-4.5-10-10M11 25c-2.8 0-5.4-1.2-7.2-3.1M35 25c2.8 0 5.4-1.2 7.2-3.1M23 7c0 3.3-2.7 6-6 6M23 7c0 3.3 2.7 6 6 6"/>
        <path d="M15 30.7c-2.3-.8-4-3-4-5.7 0-1.8.8-3.4 2-4.5M31 30.7c2.3-.8 4-3 4-5.7 0-1.8-.8-3.4-2-4.5"/>
    </g>
</svg>
