<?xml version="1.0" encoding="UTF-8"?>
<svg width="244px" height="23px" viewBox="0 0 244 23" version="1.1" xmlns="http://www.w3.org/2000/svg" xmlns:xlink="http://www.w3.org/1999/xlink">
    <!-- Generator: Sketch 57.1 (83088) - https://sketch.com -->
    <title>LogoF</title>
    <desc>Created with Sketch.</desc>
    <g id="Design" stroke="none" stroke-width="1" fill="none" fill-rule="evenodd">
        <g id="Landing-page-II" transform="translate(-96.000000, -6724.000000)" fill="#522B2F">
            <g id="Footer" transform="translate(96.000000, 6721.000000)">
                <g id="Group">
                    <g id="LogoF">
                        <path d="M0.496,4.096 L7.36,4.096 L12.96,9.504 L12.96,4.096 L19.04,4.096 L19.04,16 L12.848,16 L6.576,10.048 L6.576,16 L0.496,16 L0.496,4.096 Z M31.464,11.056 L30.008,7.76 L28.584,11.056 L31.464,11.056 Z M33.64,16 L33.016,14.576 L27.064,14.576 L26.44,16 L20.296,16 L25.912,4.096 L34.456,4.096 L40.424,16 L33.64,16 Z M52.112,16 L43.424,16 L37.76,4.096 L44.656,4.096 L47.936,11.44 L51.04,4.096 L57.344,4.096 L52.112,16 Z M64.68,4.096 L64.68,16 L58.616,16 L58.616,4.096 L64.68,4.096 Z M75.072,16.24 L74.656,16.24 C68,16.24 66.416,12.976 66.416,10.24 L66.416,9.76 C66.416,6.736 68.24,3.856 75.568,3.856 L76.08,3.856 C84.512,3.856 85.312,6.848 85.312,8.576 L85.312,8.592 L79.104,8.592 C79.024,8.288 78.624,7.456 75.984,7.456 C73.616,7.456 72.672,8.464 72.672,9.904 L72.672,10.048 C72.672,11.536 73.568,12.72 75.936,12.72 C78.304,12.72 78.944,11.984 78.944,11.664 L75.728,11.664 L75.728,9.232 L85.392,9.232 L85.392,16 L81.312,16 C81.2,15.664 80.896,15.056 80.592,14.752 C80.208,15.104 78.8,16.24 75.072,16.24 Z M97.8,11.056 L96.344,7.76 L94.92,11.056 L97.8,11.056 Z M99.976,16 L99.352,14.576 L93.4,14.576 L92.776,16 L86.632,16 L92.248,4.096 L100.792,4.096 L106.76,16 L99.976,16 Z M110.176,16 L110.176,8.192 L105.04,8.192 L105.04,4.096 L121.392,4.096 L121.392,8.192 L116.256,8.192 L116.256,16 L110.176,16 Z M131.928,3.856 L132.728,3.856 C140.776,3.856 141.992,7.28 141.992,9.776 L141.992,10.256 C141.992,12.704 140.76,16.24 132.728,16.24 L131.928,16.24 C123.912,16.24 122.664,12.704 122.664,10.256 L122.664,9.776 C122.664,7.28 123.88,3.856 131.928,3.856 Z M135.72,10.096 L135.72,9.872 C135.72,8.832 134.92,7.648 132.312,7.648 C129.672,7.648 128.92,8.832 128.92,9.872 L128.92,10.064 C128.92,11.136 129.752,12.416 132.312,12.416 C134.904,12.416 135.72,11.184 135.72,10.096 Z M149.808,8.848 L154.24,8.848 C155.072,8.848 155.344,8.528 155.344,8.096 C155.344,7.648 155.056,7.344 154.24,7.344 L149.808,7.344 L149.808,8.848 Z M149.808,12.192 L149.808,16 L143.728,16 L143.728,4.096 L156.88,4.096 C159.44,4.096 161.568,4.736 161.568,7.104 L161.568,7.248 C161.568,9.024 159.904,9.776 158.816,10 C160.72,10.368 161.632,11.44 161.632,12.992 L161.632,14.8 C161.632,15.392 161.712,15.664 161.84,15.904 L161.84,16 L155.584,16 C155.504,15.92 155.504,15.808 155.504,15.632 L155.504,14.192 C155.504,12.976 154.912,12.192 153.2,12.192 L149.808,12.192 Z M172.984,16.24 L170.888,16.24 C163.672,16.24 163.016,13.616 163.016,12.08 L163.016,11.952 L170.136,11.952 C170.136,12.464 170.36,13.232 172.024,13.232 C173.432,13.232 173.848,12.832 173.848,12.4 L173.848,12.352 C173.848,11.952 173.688,11.584 171.64,11.504 L169.128,11.424 C164.232,11.248 163.208,9.52 163.208,7.648 L163.208,7.504 C163.208,5.264 165,3.888 170.76,3.888 L172.792,3.888 C179.176,3.888 180.664,5.584 180.664,7.632 L180.664,7.712 L173.688,7.712 C173.64,7.328 173.448,6.752 171.864,6.752 C170.408,6.752 170.136,6.976 170.136,7.376 L170.136,7.408 C170.136,7.84 170.6,8.08 172.44,8.128 L174.84,8.192 C179.48,8.32 181.112,9.44 181.112,11.856 L181.112,12.08 C181.112,14.192 179.752,16.24 172.984,16.24 Z M188.456,4.096 L194.536,4.096 L194.536,11.76 L202.792,11.76 L202.792,16 L188.456,16 L188.456,4.096 Z M215.136,11.056 L213.68,7.76 L212.256,11.056 L215.136,11.056 Z M217.312,16 L216.688,14.576 L210.736,14.576 L210.112,16 L203.968,16 L209.584,4.096 L218.128,4.096 L224.096,16 L217.312,16 Z M225.352,16 L225.352,4.096 L238.456,4.096 C242.072,4.096 242.968,5.44 242.968,6.768 L242.968,6.864 C242.968,8.208 241.8,8.976 240.6,9.232 C242.136,9.488 243.672,10.272 243.672,12.384 L243.672,12.512 C243.672,14.384 242.376,16 238.456,16 L225.352,16 Z M235.688,7.184 L231.432,7.184 L231.432,8.336 L235.688,8.336 C236.44,8.336 236.76,8.192 236.76,7.76 L236.76,7.728 C236.76,7.28 236.44,7.184 235.688,7.184 Z M235.928,11.328 L231.432,11.328 L231.432,12.8 L235.928,12.8 C236.968,12.8 237.208,12.496 237.208,12.048 L237.208,12.016 C237.208,11.568 236.968,11.328 235.928,11.328 Z" id="NAVIGATORSLAB" fill-rule="nonzero"></path>
                        <rect id="Rectangle" x="0" y="24" width="244" height="2"></rect>
                    </g>
                </g>
            </g>
        </g>
    </g>
</svg>