<?xml version="1.0" encoding="UTF-8"?>
<svg width="183px" height="18px" viewBox="0 0 183 18" version="1.1" xmlns="http://www.w3.org/2000/svg" xmlns:xlink="http://www.w3.org/1999/xlink">
    <!-- Generator: Sketch 57.1 (83088) - https://sketch.com -->
    <title>Logo</title>
    <desc>Created with Sketch.</desc>
    <g id="Design" stroke="none" stroke-width="1" fill="none" fill-rule="evenodd">
        <g id="Mobil-Kontakty" transform="translate(-24.000000, -26.000000)">
            <g id="Header" transform="translate(24.000000, 26.000000)">
                <g id="Logo">
                    <g id="Navigators-Lab" transform="translate(0.370192, 0.936257)" fill-rule="nonzero">
                        <path d="M8.81072992e-13,0.179125364 L5.12298542,0.179125364 L9.30257726,4.21541691 L9.30257726,0.179125364 L13.8404198,0.179125364 L13.8404198,9.06374344 L9.21898542,9.06374344 L4.53784257,4.6214344 L4.53784257,9.06374344 L8.81072992e-13,9.06374344 L8.81072992e-13,0.179125364 Z M23.1131428,5.37376093 L22.0264489,2.91377259 L20.9636385,5.37376093 L23.1131428,5.37376093 Z M24.7372128,9.06374344 L24.2714868,8.00093294 L19.8291778,8.00093294 L19.3634519,9.06374344 L14.7778425,9.06374344 L18.9693761,0.179125364 L25.346239,0.179125364 L29.8004898,9.06374344 L24.7372128,9.06374344 Z M38.523895,9.06374344 L32.0395568,9.06374344 L27.8121982,0.179125364 L32.959067,0.179125364 L35.4071136,5.66036152 L37.7238017,0.179125364 L42.4288279,0.179125364 L38.523895,9.06374344 Z M47.9040932,0.179125364 L47.9040932,9.06374344 L43.3781923,9.06374344 L43.3781923,0.179125364 L47.9040932,0.179125364 Z M55.6602214,9.2428688 L55.3497375,9.2428688 C50.381994,9.2428688 49.1997666,6.80676385 49.1997666,4.76473469 L49.1997666,4.40648397 C49.1997666,2.14950437 50.5611194,3.37507799e-14 56.0304139,3.37507799e-14 L56.412548,3.37507799e-14 C62.7058191,3.37507799e-14 63.3029037,2.23309621 63.3029037,3.52279883 L63.3029037,3.53474052 L58.6695276,3.53474052 C58.6098191,3.3078484 58.3112768,2.68688047 56.3408978,2.68688047 C54.5735276,2.68688047 53.8689678,3.439207 53.8689678,4.51395918 L53.8689678,4.6214344 C53.8689678,5.73201166 54.5377025,6.61569679 56.3050728,6.61569679 C58.072443,6.61569679 58.5501107,6.06637901 58.5501107,5.82754519 L56.1498308,5.82754519 L56.1498308,4.01240816 L63.3626121,4.01240816 L63.3626121,9.06374344 L60.3174809,9.06374344 C60.2338891,8.81296793 60.006997,8.35918367 59.7801048,8.13229155 C59.4935042,8.39500875 58.4426354,9.2428688 55.6602214,9.2428688 Z M72.6233934,5.37376093 L71.5366995,2.91377259 L70.4738891,5.37376093 L72.6233934,5.37376093 Z M74.2474634,9.06374344 L73.7817374,8.00093294 L69.3394284,8.00093294 L68.8737025,9.06374344 L64.2880931,9.06374344 L68.4796267,0.179125364 L74.8564896,0.179125364 L79.3107404,9.06374344 L74.2474634,9.06374344 Z M81.8602914,9.06374344 L81.8602914,3.23619825 L78.0270086,3.23619825 L78.0270086,0.179125364 L90.2314167,0.179125364 L90.2314167,3.23619825 L86.3981339,3.23619825 L86.3981339,9.06374344 L81.8602914,9.06374344 Z M98.0950202,3.37507799e-14 L98.6921047,3.37507799e-14 C104.698775,3.37507799e-14 105.606344,2.55552187 105.606344,4.41842566 L105.606344,4.77667638 C105.606344,6.6037551 104.686834,9.2428688 98.6921047,9.2428688 L98.0950202,9.2428688 C92.112233,9.2428688 91.1807811,6.6037551 91.1807811,4.77667638 L91.1807811,4.41842566 C91.1807811,2.55552187 92.0883496,3.37507799e-14 98.0950202,3.37507799e-14 Z M100.925201,4.65725948 L100.925201,4.4900758 C100.925201,3.71386589 100.328116,2.83018076 98.3816208,2.83018076 C96.4112418,2.83018076 95.8499823,3.71386589 95.8499823,4.4900758 L95.8499823,4.63337609 C95.8499823,5.43346939 96.4709502,6.38880466 98.3816208,6.38880466 C100.316175,6.38880466 100.925201,5.46929446 100.925201,4.65725948 Z M111.43986,3.72580758 L114.747708,3.72580758 C115.368676,3.72580758 115.571685,3.48697376 115.571685,3.1645481 C115.571685,2.83018076 115.356734,2.60328863 114.747708,2.60328863 L111.43986,2.60328863 L111.43986,3.72580758 Z M111.43986,6.22162099 L111.43986,9.06374344 L106.902017,9.06374344 L106.902017,0.179125364 L116.718087,0.179125364 C118.628758,0.179125364 120.217003,0.656793003 120.217003,2.42416327 L120.217003,2.53163848 C120.217003,3.85716618 118.975067,4.41842566 118.163032,4.58560933 C119.584093,4.86026822 120.264769,5.66036152 120.264769,6.81870554 L120.264769,8.16811662 C120.264769,8.60995918 120.324478,8.81296793 120.420011,8.99209329 L120.420011,9.06374344 L115.75081,9.06374344 C115.691102,9.00403499 115.691102,8.92044315 115.691102,8.78908455 L115.691102,7.71433236 C115.691102,6.80676385 115.249259,6.22162099 113.971498,6.22162099 L111.43986,6.22162099 Z M128.737399,9.2428688 L127.173038,9.2428688 C121.787335,9.2428688 121.297726,7.28443149 121.297726,6.13802915 L121.297726,6.04249563 L126.611778,6.04249563 C126.611778,6.42462974 126.778962,6.9978309 128.020898,6.9978309 C129.071766,6.9978309 129.38225,6.69928863 129.38225,6.37686297 L129.38225,6.3410379 C129.38225,6.04249563 129.262834,5.76783673 127.734297,5.70812828 L125.859452,5.64841983 C122.205294,5.51706122 121.441026,4.2273586 121.441026,2.83018076 L121.441026,2.72270554 C121.441026,1.0508688 122.778495,0.0238833819 127.077504,0.0238833819 L128.594099,0.0238833819 C133.358834,0.0238833819 134.469411,1.28970262 134.469411,2.81823907 L134.469411,2.87794752 L129.262834,2.87794752 C129.227008,2.59134694 129.083708,2.16144606 127.901481,2.16144606 C126.814787,2.16144606 126.611778,2.32862974 126.611778,2.62717201 L126.611778,2.65105539 C126.611778,2.97348105 126.958087,3.15260641 128.331382,3.18843149 L130.122635,3.23619825 C133.585726,3.33173178 134.803778,4.16765015 134.803778,5.97084548 L134.803778,6.13802915 C134.803778,7.71433236 133.788734,9.2428688 128.737399,9.2428688 Z" id="NAVIGATORS" fill="#522B2F"></path>
                        <path d="M140.285014,0.179125364 L144.822857,0.179125364 L144.822857,5.89919534 L150.984769,5.89919534 L150.984769,9.06374344 L140.285014,9.06374344 L140.285014,0.179125364 Z M160.197784,5.37376093 L159.11109,2.91377259 L158.048279,5.37376093 L160.197784,5.37376093 Z M161.821854,9.06374344 L161.356128,8.00093294 L156.913819,8.00093294 L156.448093,9.06374344 L151.862484,9.06374344 L156.054017,0.179125364 L162.43088,0.179125364 L166.885131,9.06374344 L161.821854,9.06374344 Z M167.822554,9.06374344 L167.822554,0.179125364 L177.602798,0.179125364 C180.301621,0.179125364 180.970355,1.18222741 180.970355,2.17338776 L180.970355,2.2450379 C180.970355,3.24813994 180.098612,3.82134111 179.202985,4.01240816 C180.349387,4.20347522 181.49579,4.78861808 181.49579,6.36492128 L181.49579,6.46045481 C181.49579,7.85763265 180.528513,9.06374344 177.602798,9.06374344 L167.822554,9.06374344 Z M175.536886,2.48387172 L172.360396,2.48387172 L172.360396,3.34367347 L175.536886,3.34367347 C176.098145,3.34367347 176.336979,3.23619825 176.336979,2.91377259 L176.336979,2.88988921 C176.336979,2.55552187 176.098145,2.48387172 175.536886,2.48387172 Z M175.716011,5.57676968 L172.360396,5.57676968 L172.360396,6.67540525 L175.716011,6.67540525 C176.492221,6.67540525 176.671347,6.44851312 176.671347,6.11414577 L176.671347,6.09026239 C176.671347,5.75589504 176.492221,5.57676968 175.716011,5.57676968 Z" id="LAB" fill="#FFCBB3"></path>
                    </g>
                    <rect id="Rectangle" fill="#FFCBB3" x="0" y="15.9125364" width="182.110787" height="1.49271137"></rect>
                </g>
            </g>
        </g>
    </g>
</svg>