<?xml version="1.0" encoding="UTF-8"?>
<svg width="244px" height="23px" viewBox="0 0 244 23" version="1.1" xmlns="http://www.w3.org/2000/svg" xmlns:xlink="http://www.w3.org/1999/xlink">
    <!-- Generator: Sketch 57.1 (83088) - https://sketch.com -->
    <title>Logo</title>
    <desc>Created with Sketch.</desc>
    <g id="Design" stroke="none" stroke-width="1" fill="none" fill-rule="evenodd">
        <g id="Landing-page-II" transform="translate(-96.000000, -40.000000)">
            <g id="Header" transform="translate(96.000000, 32.000000)">
                <g id="Logo" transform="translate(0.000000, 8.000000)">
                    <g>
                        <g id="Navigators-Lab" transform="translate(0.496000, 0.856000)" fill-rule="nonzero">
                            <path d="M0,0.24 L6.864,0.24 L12.464,5.648 L12.464,0.24 L18.544,0.24 L18.544,12.144 L12.352,12.144 L6.08,6.192 L6.08,12.144 L0,12.144 L0,0.24 Z M30.968,7.2 L29.512,3.904 L28.088,7.2 L30.968,7.2 Z M33.144,12.144 L32.52,10.72 L26.568,10.72 L25.944,12.144 L19.8,12.144 L25.416,0.24 L33.96,0.24 L39.928,12.144 L33.144,12.144 Z M51.616,12.144 L42.928,12.144 L37.264,0.24 L44.16,0.24 L47.44,7.584 L50.544,0.24 L56.848,0.24 L51.616,12.144 Z M64.184,0.24 L64.184,12.144 L58.12,12.144 L58.12,0.24 L64.184,0.24 Z M74.576,12.384 L74.16,12.384 C67.504,12.384 65.92,9.12 65.92,6.384 L65.92,5.904 C65.92,2.88 67.744,-4.47641924e-13 75.072,-4.47641924e-13 L75.584,-4.47641924e-13 C84.016,-4.47641924e-13 84.816,2.992 84.816,4.72 L84.816,4.736 L78.608,4.736 C78.528,4.432 78.128,3.6 75.488,3.6 C73.12,3.6 72.176,4.608 72.176,6.048 L72.176,6.192 C72.176,7.68 73.072,8.864 75.44,8.864 C77.808,8.864 78.448,8.128 78.448,7.808 L75.232,7.808 L75.232,5.376 L84.896,5.376 L84.896,12.144 L80.816,12.144 C80.704,11.808 80.4,11.2 80.096,10.896 C79.712,11.248 78.304,12.384 74.576,12.384 Z M97.304,7.2 L95.848,3.904 L94.424,7.2 L97.304,7.2 Z M99.48,12.144 L98.856,10.72 L92.904,10.72 L92.28,12.144 L86.136,12.144 L91.752,0.24 L100.296,0.24 L106.264,12.144 L99.48,12.144 Z M109.68,12.144 L109.68,4.336 L104.544,4.336 L104.544,0.24 L120.896,0.24 L120.896,4.336 L115.76,4.336 L115.76,12.144 L109.68,12.144 Z M131.432,-4.47641924e-13 L132.232,-4.47641924e-13 C140.28,-4.47641924e-13 141.496,3.424 141.496,5.92 L141.496,6.4 C141.496,8.848 140.264,12.384 132.232,12.384 L131.432,12.384 C123.416,12.384 122.168,8.848 122.168,6.4 L122.168,5.92 C122.168,3.424 123.384,-4.47641924e-13 131.432,-4.47641924e-13 Z M135.224,6.24 L135.224,6.016 C135.224,4.976 134.424,3.792 131.816,3.792 C129.176,3.792 128.424,4.976 128.424,6.016 L128.424,6.208 C128.424,7.28 129.256,8.56 131.816,8.56 C134.408,8.56 135.224,7.328 135.224,6.24 Z M149.312,4.992 L153.744,4.992 C154.576,4.992 154.848,4.672 154.848,4.24 C154.848,3.792 154.56,3.488 153.744,3.488 L149.312,3.488 L149.312,4.992 Z M149.312,8.336 L149.312,12.144 L143.232,12.144 L143.232,0.24 L156.384,0.24 C158.944,0.24 161.072,0.88 161.072,3.248 L161.072,3.392 C161.072,5.168 159.408,5.92 158.32,6.144 C160.224,6.512 161.136,7.584 161.136,9.136 L161.136,10.944 C161.136,11.536 161.216,11.808 161.344,12.048 L161.344,12.144 L155.088,12.144 C155.008,12.064 155.008,11.952 155.008,11.776 L155.008,10.336 C155.008,9.12 154.416,8.336 152.704,8.336 L149.312,8.336 Z M172.488,12.384 L170.392,12.384 C163.176,12.384 162.52,9.76 162.52,8.224 L162.52,8.096 L169.64,8.096 C169.64,8.608 169.864,9.376 171.528,9.376 C172.936,9.376 173.352,8.976 173.352,8.544 L173.352,8.496 C173.352,8.096 173.192,7.728 171.144,7.648 L168.632,7.568 C163.736,7.392 162.712,5.664 162.712,3.792 L162.712,3.648 C162.712,1.408 164.504,0.032 170.264,0.032 L172.296,0.032 C178.68,0.032 180.168,1.728 180.168,3.776 L180.168,3.856 L173.192,3.856 C173.144,3.472 172.952,2.896 171.368,2.896 C169.912,2.896 169.64,3.12 169.64,3.52 L169.64,3.552 C169.64,3.984 170.104,4.224 171.944,4.272 L174.344,4.336 C178.984,4.464 180.616,5.584 180.616,8 L180.616,8.224 C180.616,10.336 179.256,12.384 172.488,12.384 Z" id="NAVIGATORS" fill="#FFFFFF"></path>
                            <path d="M187.96,0.24 L194.04,0.24 L194.04,7.904 L202.296,7.904 L202.296,12.144 L187.96,12.144 L187.96,0.24 Z M214.64,7.2 L213.184,3.904 L211.76,7.2 L214.64,7.2 Z M216.816,12.144 L216.192,10.72 L210.24,10.72 L209.616,12.144 L203.472,12.144 L209.088,0.24 L217.632,0.24 L223.6,12.144 L216.816,12.144 Z M224.856,12.144 L224.856,0.24 L237.96,0.24 C241.576,0.24 242.472,1.584 242.472,2.912 L242.472,3.008 C242.472,4.352 241.304,5.12 240.104,5.376 C241.64,5.632 243.176,6.416 243.176,8.528 L243.176,8.656 C243.176,10.528 241.88,12.144 237.96,12.144 L224.856,12.144 Z M235.192,3.328 L230.936,3.328 L230.936,4.48 L235.192,4.48 C235.944,4.48 236.264,4.336 236.264,3.904 L236.264,3.872 C236.264,3.424 235.944,3.328 235.192,3.328 Z M235.432,7.472 L230.936,7.472 L230.936,8.944 L235.432,8.944 C236.472,8.944 236.712,8.64 236.712,8.192 L236.712,8.16 C236.712,7.712 236.472,7.472 235.432,7.472 Z" id="LAB" fill="#FFCBB3"></path>
                        </g>
                        <rect id="Rectangle" fill="#FFCBB3" x="0" y="21" width="244" height="2"></rect>
                    </g>
                </g>
            </g>
        </g>
    </g>
</svg>